<svg width="284" height="282" viewBox="0 0 284 282" fill="none" xmlns="http://www.w3.org/2000/svg">
<rect x="44" width="200" height="200" rx="100" fill="#6FCF97"/>
<path d="M132.25 124.062L106.187 98L97.3125 106.812L132.25 141.75L207.25 66.75L198.438 57.9375L132.25 124.062Z" fill="white"/>
<path d="M9.48613 234.779L14.3934 224.672H18.4949L11.3465 238.148V246H7.62578V238.148L0.462692 224.672H4.5789L9.48613 234.779ZM19.7318 237.929C19.7318 236.376 20.0395 234.979 20.6547 233.739C21.2699 232.489 22.1342 231.532 23.2475 230.868C24.3607 230.194 25.64 229.857 27.0854 229.857C29.224 229.857 30.9574 230.546 32.2855 231.923C33.6234 233.3 34.3461 235.126 34.4535 237.401L34.4682 238.236C34.4682 239.799 34.1654 241.195 33.56 242.426C32.9643 243.656 32.1049 244.608 30.9818 245.282C29.8686 245.956 28.5795 246.293 27.1146 246.293C24.8783 246.293 23.0863 245.551 21.7387 244.066C20.4008 242.572 19.7318 240.585 19.7318 238.104V237.929ZM23.2914 238.236C23.2914 239.867 23.6283 241.146 24.3021 242.074C24.976 242.992 25.9135 243.451 27.1146 243.451C28.3158 243.451 29.2484 242.982 29.9125 242.045C30.5863 241.107 30.9232 239.735 30.9232 237.929C30.9232 236.327 30.5766 235.058 29.8832 234.12C29.1996 233.183 28.267 232.714 27.0854 232.714C25.9232 232.714 25.0004 233.178 24.3168 234.105C23.6332 235.023 23.2914 236.4 23.2914 238.236ZM47.9805 244.447C46.9355 245.678 45.4512 246.293 43.5273 246.293C41.8086 246.293 40.5049 245.79 39.6162 244.784C38.7373 243.778 38.2979 242.323 38.2979 240.419V230.15H41.8574V240.375C41.8574 242.387 42.6924 243.393 44.3623 243.393C46.0908 243.393 47.2578 242.772 47.8633 241.532V230.15H51.4229V246H48.0684L47.9805 244.447ZM64.2467 233.402C63.7779 233.324 63.2945 233.285 62.7965 233.285C61.1656 233.285 60.067 233.91 59.5006 235.16V246H55.941V230.15H59.3394L59.4273 231.923C60.2867 230.546 61.4781 229.857 63.0016 229.857C63.5094 229.857 63.9293 229.926 64.2613 230.062L64.2467 233.402ZM75.0994 237.929C75.0994 236.376 75.407 234.979 76.0223 233.739C76.6375 232.489 77.5018 231.532 78.615 230.868C79.7283 230.194 81.0076 229.857 82.4529 229.857C84.5916 229.857 86.325 230.546 87.6531 231.923C88.991 233.3 89.7137 235.126 89.8211 237.401L89.8357 238.236C89.8357 239.799 89.533 241.195 88.9275 242.426C88.3318 243.656 87.4725 244.608 86.3494 245.282C85.2361 245.956 83.9471 246.293 82.4822 246.293C80.2459 246.293 78.4539 245.551 77.1062 244.066C75.7684 242.572 75.0994 240.585 75.0994 238.104V237.929ZM78.659 238.236C78.659 239.867 78.9959 241.146 79.6697 242.074C80.3436 242.992 81.2811 243.451 82.4822 243.451C83.6834 243.451 84.616 242.982 85.2801 242.045C85.9539 241.107 86.2908 239.735 86.2908 237.929C86.2908 236.327 85.9441 235.058 85.2508 234.12C84.5672 233.183 83.6346 232.714 82.4529 232.714C81.2908 232.714 80.368 233.178 79.6844 234.105C79.0008 235.023 78.659 236.4 78.659 238.236ZM102.044 233.402C101.576 233.324 101.092 233.285 100.594 233.285C98.9633 233.285 97.8647 233.91 97.2982 235.16V246H93.7387V230.15H97.1371L97.225 231.923C98.0844 230.546 99.2758 229.857 100.799 229.857C101.307 229.857 101.727 229.926 102.059 230.062L102.044 233.402ZM104.233 237.958C104.233 235.517 104.8 233.559 105.933 232.084C107.065 230.6 108.584 229.857 110.488 229.857C112.168 229.857 113.525 230.443 114.561 231.615V223.5H118.12V246H114.897L114.722 244.359C113.657 245.648 112.236 246.293 110.459 246.293C108.604 246.293 107.1 245.546 105.947 244.052C104.805 242.558 104.233 240.526 104.233 237.958ZM107.793 238.266C107.793 239.877 108.101 241.137 108.716 242.045C109.341 242.943 110.225 243.393 111.367 243.393C112.822 243.393 113.887 242.743 114.561 241.444V234.677C113.906 233.407 112.852 232.772 111.396 232.772C110.244 232.772 109.355 233.231 108.73 234.149C108.105 235.058 107.793 236.43 107.793 238.266ZM129.713 246.293C127.458 246.293 125.627 245.585 124.22 244.169C122.824 242.743 122.126 240.849 122.126 238.485V238.046C122.126 236.464 122.428 235.053 123.034 233.812C123.649 232.562 124.508 231.591 125.612 230.897C126.715 230.204 127.946 229.857 129.303 229.857C131.462 229.857 133.127 230.546 134.298 231.923C135.48 233.3 136.071 235.248 136.071 237.768V239.203H125.714C125.822 240.512 126.256 241.547 127.018 242.309C127.79 243.07 128.756 243.451 129.919 243.451C131.549 243.451 132.878 242.792 133.903 241.474L135.822 243.305C135.187 244.252 134.337 244.989 133.273 245.517C132.218 246.034 131.032 246.293 129.713 246.293ZM129.289 232.714C128.312 232.714 127.521 233.056 126.916 233.739C126.32 234.423 125.939 235.375 125.773 236.596H132.555V236.332C132.477 235.141 132.16 234.242 131.603 233.637C131.046 233.021 130.275 232.714 129.289 232.714ZM148.045 233.402C147.576 233.324 147.093 233.285 146.595 233.285C144.964 233.285 143.865 233.91 143.299 235.16V246H139.739V230.15H143.138L143.226 231.923C144.085 230.546 145.277 229.857 146.8 229.857C147.308 229.857 147.728 229.926 148.06 230.062L148.045 233.402ZM163.073 231.879C164.235 230.531 165.704 229.857 167.482 229.857C170.861 229.857 172.575 231.786 172.623 235.644V246H169.064V235.775C169.064 234.682 168.825 233.91 168.346 233.461C167.877 233.002 167.184 232.772 166.266 232.772C164.84 232.772 163.776 233.407 163.073 234.677V246H159.513V223.5H163.073V231.879ZM186.604 246C186.448 245.697 186.312 245.204 186.194 244.521C185.062 245.702 183.675 246.293 182.034 246.293C180.442 246.293 179.144 245.839 178.138 244.931C177.132 244.022 176.629 242.899 176.629 241.562C176.629 239.872 177.254 238.578 178.504 237.68C179.764 236.771 181.561 236.317 183.895 236.317H186.077V235.277C186.077 234.457 185.848 233.803 185.389 233.314C184.93 232.816 184.231 232.567 183.294 232.567C182.483 232.567 181.819 232.772 181.302 233.183C180.784 233.583 180.525 234.096 180.525 234.721H176.966C176.966 233.852 177.254 233.041 177.83 232.289C178.406 231.527 179.188 230.932 180.174 230.502C181.17 230.072 182.278 229.857 183.499 229.857C185.354 229.857 186.834 230.326 187.938 231.264C189.041 232.191 189.607 233.5 189.637 235.189V242.338C189.637 243.764 189.837 244.901 190.237 245.751V246H186.604ZM182.693 243.437C183.396 243.437 184.056 243.266 184.671 242.924C185.296 242.582 185.765 242.123 186.077 241.547V238.559H184.158C182.84 238.559 181.849 238.788 181.185 239.247C180.521 239.706 180.188 240.355 180.188 241.195C180.188 241.879 180.413 242.426 180.862 242.836C181.321 243.236 181.932 243.437 182.693 243.437ZM203.149 241.693C203.149 241.059 202.885 240.575 202.358 240.243C201.84 239.911 200.976 239.618 199.765 239.364C198.554 239.11 197.544 238.788 196.733 238.397C194.956 237.538 194.067 236.293 194.067 234.662C194.067 233.295 194.643 232.152 195.796 231.234C196.948 230.316 198.413 229.857 200.19 229.857C202.085 229.857 203.613 230.326 204.775 231.264C205.947 232.201 206.533 233.417 206.533 234.911H202.973C202.973 234.228 202.719 233.661 202.212 233.212C201.704 232.753 201.03 232.523 200.19 232.523C199.409 232.523 198.769 232.704 198.271 233.065C197.783 233.427 197.539 233.91 197.539 234.516C197.539 235.062 197.768 235.487 198.227 235.79C198.686 236.093 199.614 236.4 201.01 236.713C202.407 237.016 203.501 237.382 204.292 237.812C205.092 238.231 205.683 238.739 206.064 239.335C206.455 239.931 206.65 240.653 206.65 241.503C206.65 242.929 206.059 244.086 204.878 244.975C203.696 245.854 202.148 246.293 200.234 246.293C198.935 246.293 197.778 246.059 196.762 245.59C195.747 245.121 194.956 244.477 194.389 243.656C193.823 242.836 193.54 241.952 193.54 241.005H196.997C197.046 241.845 197.363 242.494 197.949 242.953C198.535 243.402 199.311 243.627 200.278 243.627C201.215 243.627 201.928 243.451 202.417 243.1C202.905 242.738 203.149 242.27 203.149 241.693ZM232.942 238.236C232.942 240.697 232.39 242.655 231.287 244.11C230.193 245.565 228.684 246.293 226.761 246.293C224.905 246.293 223.46 245.624 222.425 244.286L222.249 246H219.026V223.5H222.586V231.674C223.611 230.463 224.993 229.857 226.731 229.857C228.665 229.857 230.183 230.575 231.287 232.011C232.39 233.446 232.942 235.453 232.942 238.031V238.236ZM229.383 237.929C229.383 236.21 229.08 234.921 228.474 234.062C227.869 233.202 226.99 232.772 225.838 232.772C224.295 232.772 223.211 233.446 222.586 234.794V241.327C223.221 242.704 224.314 243.393 225.867 243.393C226.98 243.393 227.84 242.978 228.445 242.147C229.051 241.317 229.363 240.062 229.383 238.383V237.929ZM243.818 246.293C241.562 246.293 239.731 245.585 238.325 244.169C236.928 242.743 236.23 240.849 236.23 238.485V238.046C236.23 236.464 236.533 235.053 237.138 233.812C237.753 232.562 238.613 231.591 239.716 230.897C240.82 230.204 242.05 229.857 243.408 229.857C245.566 229.857 247.231 230.546 248.403 231.923C249.584 233.3 250.175 235.248 250.175 237.768V239.203H239.819C239.926 240.512 240.361 241.547 241.122 242.309C241.894 243.07 242.861 243.451 244.023 243.451C245.654 243.451 246.982 242.792 248.007 241.474L249.926 243.305C249.291 244.252 248.442 244.989 247.377 245.517C246.323 246.034 245.136 246.293 243.818 246.293ZM243.393 232.714C242.416 232.714 241.625 233.056 241.02 233.739C240.424 234.423 240.043 235.375 239.877 236.596H246.66V236.332C246.581 235.141 246.264 234.242 245.707 233.637C245.151 233.021 244.379 232.714 243.393 232.714ZM260.831 246.293C258.575 246.293 256.744 245.585 255.338 244.169C253.941 242.743 253.243 240.849 253.243 238.485V238.046C253.243 236.464 253.546 235.053 254.151 233.812C254.767 232.562 255.626 231.591 256.729 230.897C257.833 230.204 259.063 229.857 260.421 229.857C262.579 229.857 264.244 230.546 265.416 231.923C266.598 233.3 267.188 235.248 267.188 237.768V239.203H256.832C256.939 240.512 257.374 241.547 258.136 242.309C258.907 243.07 259.874 243.451 261.036 243.451C262.667 243.451 263.995 242.792 265.021 241.474L266.939 243.305C266.305 244.252 265.455 244.989 264.391 245.517C263.336 246.034 262.149 246.293 260.831 246.293ZM260.406 232.714C259.43 232.714 258.639 233.056 258.033 233.739C257.438 234.423 257.057 235.375 256.891 236.596H263.673V236.332C263.595 235.141 263.277 234.242 262.721 233.637C262.164 233.021 261.393 232.714 260.406 232.714ZM274.168 230.15L274.27 231.981C275.442 230.565 276.98 229.857 278.884 229.857C282.185 229.857 283.865 231.747 283.923 235.526V246H280.364V235.731C280.364 234.726 280.144 233.983 279.705 233.505C279.275 233.017 278.567 232.772 277.581 232.772C276.145 232.772 275.076 233.422 274.373 234.721V246H270.813V230.15H274.168ZM93.6947 268.402C93.226 268.324 92.7426 268.285 92.2445 268.285C90.6137 268.285 89.515 268.91 88.9486 270.16V281H85.3891V265.15H88.7875L88.8754 266.923C89.7348 265.546 90.9262 264.857 92.4496 264.857C92.9574 264.857 93.3773 264.926 93.7094 265.062L93.6947 268.402ZM103.53 281.293C101.274 281.293 99.4434 280.585 98.0371 279.169C96.6406 277.743 95.9424 275.849 95.9424 273.485V273.046C95.9424 271.464 96.2451 270.053 96.8506 268.812C97.4658 267.562 98.3252 266.591 99.4287 265.897C100.532 265.204 101.763 264.857 103.12 264.857C105.278 264.857 106.943 265.546 108.115 266.923C109.297 268.3 109.888 270.248 109.888 272.768V274.203H99.5312C99.6387 275.512 100.073 276.547 100.835 277.309C101.606 278.07 102.573 278.451 103.735 278.451C105.366 278.451 106.694 277.792 107.72 276.474L109.639 278.305C109.004 279.252 108.154 279.989 107.09 280.517C106.035 281.034 104.849 281.293 103.53 281.293ZM103.105 267.714C102.129 267.714 101.338 268.056 100.732 268.739C100.137 269.423 99.7559 270.375 99.5898 271.596H106.372V271.332C106.294 270.141 105.977 269.242 105.42 268.637C104.863 268.021 104.092 267.714 103.105 267.714ZM120.075 278.451C120.963 278.451 121.701 278.192 122.287 277.675C122.873 277.157 123.185 276.518 123.224 275.756H126.579C126.54 276.742 126.232 277.665 125.656 278.524C125.08 279.374 124.298 280.048 123.312 280.546C122.326 281.044 121.261 281.293 120.119 281.293C117.902 281.293 116.144 280.575 114.845 279.14C113.546 277.704 112.897 275.722 112.897 273.192V272.826C112.897 270.414 113.542 268.485 114.831 267.04C116.12 265.585 117.878 264.857 120.104 264.857C121.989 264.857 123.522 265.409 124.704 266.513C125.895 267.606 126.52 269.047 126.579 270.834H123.224C123.185 269.926 122.873 269.179 122.287 268.593C121.711 268.007 120.973 267.714 120.075 267.714C118.922 267.714 118.034 268.134 117.409 268.974C116.784 269.804 116.466 271.068 116.457 272.768V273.339C116.457 275.058 116.764 276.342 117.38 277.191C118.005 278.031 118.903 278.451 120.075 278.451ZM137.147 281.293C134.891 281.293 133.06 280.585 131.654 279.169C130.257 277.743 129.559 275.849 129.559 273.485V273.046C129.559 271.464 129.862 270.053 130.467 268.812C131.082 267.562 131.942 266.591 133.045 265.897C134.149 265.204 135.379 264.857 136.737 264.857C138.895 264.857 140.56 265.546 141.732 266.923C142.913 268.3 143.504 270.248 143.504 272.768V274.203H133.148C133.255 275.512 133.69 276.547 134.451 277.309C135.223 278.07 136.19 278.451 137.352 278.451C138.983 278.451 140.311 277.792 141.336 276.474L143.255 278.305C142.62 279.252 141.771 279.989 140.706 280.517C139.652 281.034 138.465 281.293 137.147 281.293ZM136.722 267.714C135.745 267.714 134.954 268.056 134.349 268.739C133.753 269.423 133.372 270.375 133.206 271.596H139.988V271.332C139.91 270.141 139.593 269.242 139.036 268.637C138.48 268.021 137.708 267.714 136.722 267.714ZM150.967 281H147.407V265.15H150.967V281ZM147.187 261.034C147.187 260.487 147.358 260.033 147.7 259.672C148.052 259.311 148.55 259.13 149.194 259.13C149.839 259.13 150.337 259.311 150.688 259.672C151.04 260.033 151.216 260.487 151.216 261.034C151.216 261.571 151.04 262.021 150.688 262.382C150.337 262.733 149.839 262.909 149.194 262.909C148.55 262.909 148.052 262.733 147.7 262.382C147.358 262.021 147.187 261.571 147.187 261.034ZM161.344 276.488L164.699 265.15H168.375L162.882 281H159.791L154.254 265.15H157.946L161.344 276.488ZM178.284 281.293C176.028 281.293 174.197 280.585 172.791 279.169C171.395 277.743 170.696 275.849 170.696 273.485V273.046C170.696 271.464 170.999 270.053 171.604 268.812C172.22 267.562 173.079 266.591 174.183 265.897C175.286 265.204 176.517 264.857 177.874 264.857C180.032 264.857 181.697 265.546 182.869 266.923C184.051 268.3 184.642 270.248 184.642 272.768V274.203H174.285C174.393 275.512 174.827 276.547 175.589 277.309C176.36 278.07 177.327 278.451 178.489 278.451C180.12 278.451 181.448 277.792 182.474 276.474L184.393 278.305C183.758 279.252 182.908 279.989 181.844 280.517C180.789 281.034 179.603 281.293 178.284 281.293ZM177.859 267.714C176.883 267.714 176.092 268.056 175.486 268.739C174.891 269.423 174.51 270.375 174.344 271.596H181.126V271.332C181.048 270.141 180.73 269.242 180.174 268.637C179.617 268.021 178.846 267.714 177.859 267.714ZM187.651 272.958C187.651 270.517 188.217 268.559 189.35 267.084C190.483 265.6 192.002 264.857 193.906 264.857C195.586 264.857 196.943 265.443 197.978 266.615V258.5H201.538V281H198.315L198.139 279.359C197.075 280.648 195.654 281.293 193.877 281.293C192.021 281.293 190.517 280.546 189.365 279.052C188.222 277.558 187.651 275.526 187.651 272.958ZM191.211 273.266C191.211 274.877 191.518 276.137 192.133 277.045C192.758 277.943 193.642 278.393 194.785 278.393C196.24 278.393 197.304 277.743 197.978 276.444V269.677C197.324 268.407 196.269 267.772 194.814 267.772C193.662 267.772 192.773 268.231 192.148 269.149C191.523 270.058 191.211 271.43 191.211 273.266Z" fill="#4F4F4F"/>
</svg>
